{"title":"Valkyrie 2008","uid":9422864,"size":4680839168,"categoryP":"video","categoryS":"movies_dvdr","magnet":"?xt=urn:btih:1b37f4fac83af6a8123477e07befb185604805f0&amp;dn=Valkyrie+2008&amp;tr=udp%3A%2F%2Ftracker.openbittorrent.com%3A80&amp;tr=udp%3A%2F%2Fopen.demonii.com%3A1337&amp;tr=udp%3A%2F%2Ftracker.coppersurfer.tk%3A6969&amp;tr=udp%3A%2F%2Fexodus.desync.com%3A6969","seeders":1,"leechers":0,"uploader":"exekution","files":36,"time":1388622263,"description":"Valkyrie (2008) Tom Cruise DVDrip (Optional subs NORDIC+Eng)\naka\nvalkyrie 2008\n  &lt;a href=&quot;\nhttp://www.imdb.com/title/tt0985699/&quot; rel=&quot;nofollow&quot; target=&quot;_NEW&quot;&gt;\nhttp://www.imdb.com/title/tt0985699/&lt;/a&gt;\n\nOptional subtitles in separate idx/sub files (Work in Windows Media Player etc., see enclosed Note): Danish, Finnish, Norwegian, Swedish, English for the hearing impaired.\n\nTom Cruise as Colonel Claus von Stauffenberg, the German Army officer convinced he must save Germany from Hitler. The rental Nordic DVD is finally out, so I made a rip for you with available subtitles. \n\nWidescreen DVDrip XviD 2-pass 704x368, great stereo sound AC3.\nRuns well in both my standalone DivX players.\n\nMy ripping procedure now produces decent quality for such a long film compressed into just 700 MiB. I enclose a sample for ye weak in faith. \n\nMediaInfo analysis:\nFormat/Info                      : Audio Video Interleave\nFile size                        : 696 MiB\nDuration                         : 1h 55mn\nOveral bit rate                  : 843 Kbps\n\nVideo\nFormat                           : MPEG-4 Visual\nFormat profile                   : Streaming Video@L1\nFormat settings, BVOP            : Yes\nFormat settings, QPel            : No\nFormat settings, GMC             : No warppoints\nFormat settings, Matrix          : Default\nMuxing mode                      : Packet Bitstream\nCodec ID                         : XVID\nCodec ID/Hint                    : XviD\nDuration                         : 1h 55mn\nBit rate                         : 705 Kbps\nWidth                            : 704 pixels\nHeight                           : 368 pixels\nDisplay aspect ratio             : 1.913\nFrame rate                       : 25.000 fps\nResolution                       : 8 bits\nColorimetry                      : 4:2:0\nScan type                        : Progressive\nBits/(Pixel*Frame)               : 0.109\nStream size                      : 582 MiB\nWriting library                  : XviD 1.2.0.dev47 (UTC 2006-11-01)\n\nAudio\nFormat                           : MPEG Audio\nFormat version                   : Version 1\nFormat profile                   : Layer 3\nCodec ID                         : 55\nCodec ID/Hint                    : MP3\nDuration                         : 1h 55mn\nBit rate mode                    : Constant\nBit rate                         : 128 Kbps\nMinimum bit rate                 : 128 Kbps\nChannel(s)                       : 2 channels\nSampling rate                    : 48.0 KHz\nResolution                       : 16 bits\nStream size                      : 106 MiB\nWriting library                  : LAME3.97 \nEncoding settings                : CBR","torrent":{"xt":"urn:btih:1b37f4fac83af6a8123477e07befb185604805f0","amp;dn":"Valkyrie+2008","amp;tr":["udp%3A%2F%2Ftracker.openbittorrent.com%3A80","udp%3A%2F%2Fopen.demonii.com%3A1337","udp%3A%2F%2Ftracker.coppersurfer.tk%3A6969","udp%3A%2F%2Fexodus.desync.com%3A6969"],"infoHash":"1b37f4fac83af6a8123477e07befb185604805f0","infoHashBuffer":{"type":"Buffer","data":[27,55,244,250,200,58,246,168,18,52,119,224,123,239,177,133,96,72,5,240]},"announce":[],"urlList":[]}}